<?xml version="1.0" encoding="UTF-8"?>
<svg xmlns="http://www.w3.org/2000/svg" viewBox="0 0 300 300">
  <path fill="#2E7D32" d="M150 0C93.75 0 48 45.75 48 102c0 56.25 102 198 102 198s102-141.75 102-198c0-56.25-45.75-102-102-102zm0 150c-26.5 0-48-21.5-48-48s21.5-48 48-48 48 21.5 48 48-21.5 48-48 48z"/>
  <g fill="#FFFFFF" transform="translate(102, 70)">
    <path d="M48 0c26.5 0 48 21.5 48 48s-21.5 48-48 48-48-21.5-48-48S21.5 0 48 0z"/>
    <path fill="#2E7D32" d="M65 42h-11v-11c0-3.3-2.7-6-6-6s-6 2.7-6 6v11h-11c-3.3 0-6 2.7-6 6s2.7 6 6 6h11v11c0 3.3 2.7 6 6 6s6-2.7 6-6v-11h11c3.3 0 6-2.7 6-6s-2.7-6-6-6z"/>
  </g>
</svg>
